<?xml version="1.0" encoding="UTF-8" standalone="no"?>
<!-- Created with Inkscape (http://www.inkscape.org/) -->

<svg
   width="63mm"
   height="63mm"
   viewBox="0 0 63 63"
   version="1.1"
   id="svg5"
   xml:space="preserve"
   inkscape:export-filename="instagram.png"
   inkscape:export-xdpi="300"
   inkscape:export-ydpi="300"
   inkscape:version="1.2.2 (732a01da63, 2022-12-09)"
   sodipodi:docname="logo.svg"
   xmlns:inkscape="http://www.inkscape.org/namespaces/inkscape"
   xmlns:sodipodi="http://sodipodi.sourceforge.net/DTD/sodipodi-0.dtd"
   xmlns="http://www.w3.org/2000/svg"
   xmlns:svg="http://www.w3.org/2000/svg"><sodipodi:namedview
     id="namedview7"
     pagecolor="#ffffff"
     bordercolor="#eeeeee"
     borderopacity="1"
     inkscape:showpageshadow="0"
     inkscape:pageopacity="0"
     inkscape:pagecheckerboard="0"
     inkscape:deskcolor="#454242"
     inkscape:document-units="mm"
     showgrid="false"
     inkscape:zoom="0.52724989"
     inkscape:cx="443.81233"
     inkscape:cy="454.24382"
     inkscape:window-width="1419"
     inkscape:window-height="1008"
     inkscape:window-x="363"
     inkscape:window-y="0"
     inkscape:window-maximized="0"
     inkscape:current-layer="layer1" /><defs
     id="defs2" /><g
     inkscape:label="Calque 1"
     inkscape:groupmode="layer"
     id="layer1"><path
       d="M 15.015488,154.23275 C 8.0193364,153.36629 1.5603934,150.12058 -3.3915014,144.983 c -5.1054271,-5.29687 -8.0761976,-12.0462 -8.5245846,-19.36723 -0.344548,-5.62539 0.705755,-10.80931 3.1966663,-15.77786 0.9053878,-1.80594 2.1060379,-3.72239 3.2571801,-5.19905 1.017434,-1.30515 3.681455,-3.98981 5.017378,-5.056216 4.410016,-3.520327 9.797747,-5.810739 15.3126356,-6.509629 2.53972,-0.321838 7.061138,-0.22389 9.314485,0.201786 4.286503,0.809759 8.205422,2.379418 11.569992,4.634162 7.577787,5.078257 12.277288,12.519027 13.626204,21.574557 0.279526,1.87656 0.240711,6.87758 -0.06791,8.75632 -0.559642,3.40637 -1.478244,6.2775 -2.949294,9.21834 -4.689652,9.37522 -13.962653,15.78824 -24.34832,16.83884 -1.864995,0.18865 -5.202658,0.1581 -6.997385,-0.0642 z m 13.00023,-17.03413 c 0.409978,-0.43889 0.45516,-0.6055 2.615186,-9.64287 3.203513,-13.40327 3.772559,-16.58737 3.060161,-17.1231 -0.177971,-0.1338 -0.465117,-0.18475 -0.820912,-0.14577 -1.172418,0.12865 -26.3201506,9.43774 -30.8779916,11.4303 -1.149412,0.5025 -1.526059,1.20838 -0.95138,1.78306 0.142082,0.14208 1.974078,0.81414 4.154323,1.5239 l 3.900008,1.26961 0.315342,0.9046 c 1.3466526,3.8628 3.3180066,9.14274 3.4705236,9.29525 0.156806,0.15681 0.176499,0.13564 0.124782,-0.13453 -0.05558,-0.29039 0.39369,-5.6696 0.58839,-7.04605 l 0.08043,-0.56862 1.320371,0.9221 c 0.726183,0.50715 2.243868,1.53701 3.372612,2.28853 2.395448,1.59491 5.234921,3.61563 6.498809,4.62487 1.198147,0.95674 1.333456,1.02298 2.099983,1.02778 0.564482,0.004 0.720957,-0.0574 1.049402,-0.40904 z"
       style="fill:#f0cb6b;fill-opacity:1;stroke-width:0.136817"
       id="path377" /><path
       d="m 59.00337,201.48433 c -9.118711,-1.8631 -17.055488,-7.97472 -21.198832,-16.32393 -3.015935,-6.07742 -3.922974,-12.79454 -2.629977,-19.47644 2.078522,-10.74125 9.875743,-19.6156 20.29258,-23.09584 7.612659,-2.54338 15.879389,-1.99252 23.093232,1.53878 15.32557,7.5022 21.530707,26.06813 13.797877,41.28361 -4.249442,8.36137 -12.271558,14.3994 -21.456109,16.14945 l -0.953265,0.1817 V 191.0439 180.34615 h 3.523388 3.52337 l 0.06841,-0.30513 c 0.07315,-0.32577 1.292833,-8.26996 1.292833,-8.42042 0,-0.0491 -1.895458,-0.0894 -4.212137,-0.0894 h -4.212118 l 0.04196,-3.62768 c 0.04032,-3.48641 0.05455,-3.65556 0.365544,-4.34365 0.457177,-1.01166 1.433812,-1.85302 2.551735,-2.19832 0.748729,-0.23126 1.26151,-0.27263 3.379381,-0.27263 h 2.496733 l -0.03612,-3.7633 -0.03612,-3.76328 -0.949288,-0.15798 c -0.522121,-0.0868 -2.060444,-0.23571 -3.418494,-0.33072 -4.004609,-0.28015 -6.387143,0.0994 -8.718964,1.38872 -1.42655,0.7888 -3.014019,2.41601 -3.759118,3.85317 -1.232432,2.37716 -1.560981,4.54082 -1.512583,9.96094 l 0.02846,3.18694 -3.887855,0.0359 -3.887856,0.0359 v 4.40328 4.4033 l 3.877568,0.0359 3.877584,0.0359 -0.01277,10.63511 c -0.0073,5.84932 -0.02828,10.64757 -0.04652,10.6628 -0.01824,0.0146 -0.595292,-0.0872 -1.282307,-0.2275 z"
       style="fill:#f0cb6b;fill-opacity:1;stroke-width:0.135614"
       id="path440" /><path
       d="M 29.333603,61.947987 C 18.65983,61.18434 8.8601623,54.531504 4.1470333,44.84923 -0.04044955,36.24685 0.10788121,25.827011 4.5376358,17.409373 9.8803355,7.2569554 20.232424,0.98256619 31.640167,0.98256619 c 8.959309,0 17.361014,3.86123561 23.175627,10.65097881 4.803566,5.609137 7.352639,12.49844 7.352639,19.871794 0,7.970128 -2.960465,15.393199 -8.410265,21.0879 -6.37271,6.659059 -15.144448,10.018686 -24.424565,9.354748 z M 39.55125,50.627943 c 3.876878,-0.259483 5.951957,-1.077027 8.037074,-3.166434 2.266849,-2.271521 2.926133,-4.141179 3.200692,-9.076849 0.214238,-3.850978 0.07337,-14.738241 -0.214328,-16.575027 -0.442218,-2.822573 -1.228534,-4.484053 -2.921625,-6.173494 -1.318916,-1.31605 -2.236095,-1.902565 -3.833986,-2.451719 -1.972159,-0.67781 -2.24241,-0.696554 -11.025609,-0.764687 -10.798779,-0.08378 -12.014974,0.02792 -14.721394,1.350837 -0.937585,0.458316 -1.382523,0.793379 -2.37875,1.791303 -1.744798,1.74781 -2.510927,3.333637 -2.985578,6.179919 -0.290675,1.742991 -0.42999,12.585829 -0.213581,16.620929 0.178501,3.328052 0.445759,4.723168 1.222219,6.380103 1.718242,3.666637 4.916525,5.596999 9.762507,5.892273 2.523704,0.153861 13.742597,0.148751 16.072359,-0.0073 z M 22.854066,47.10427 c -2.161245,-0.260486 -3.499033,-0.852933 -4.749413,-2.103296 -0.970547,-0.970547 -1.501998,-1.990446 -1.871264,-3.591039 -0.200567,-0.86936 -0.242107,-2.038448 -0.2948,-8.294658 -0.07063,-8.389239 0.03705,-10.747583 0.566201,-12.391103 0.845926,-2.627738 2.697988,-4.134863 5.773383,-4.698144 1.474456,-0.270051 17.249551,-0.270051 18.724007,0 3.067163,0.561784 4.9577,2.095867 5.776303,4.687229 0.490986,1.55427 0.592173,3.431301 0.596626,11.068939 0.0037,6.658658 -0.105677,8.955896 -0.491917,10.311205 -0.710936,2.494775 -2.562707,4.19252 -5.282342,4.842971 -0.811849,0.194179 -2.068143,0.228492 -9.350112,0.255413 -4.626726,0.01643 -8.85522,-0.02227 -9.396672,-0.08742 z m 11.476478,-6.098023 c 3.315349,-0.9201 5.979535,-3.648587 6.886932,-7.053167 0.325079,-1.219791 0.324422,-3.564775 -0.0016,-4.802051 -0.750049,-2.848436 -2.595231,-5.139924 -5.148192,-6.393444 -1.658249,-0.814222 -2.679627,-1.058356 -4.427711,-1.058356 -1.748102,0 -2.769479,0.244134 -4.42771,1.058356 -2.607625,1.280368 -4.602014,3.82225 -5.217768,6.650189 -0.248331,1.140543 -0.211572,3.464446 0.07191,4.545306 0.988232,3.767933 4.10254,6.62586 7.97761,7.320936 1.027328,0.184268 3.130989,0.05275 4.286297,-0.267769 z M 29.7132,37.625868 c -1.126051,-0.360031 -1.869147,-0.840979 -2.720985,-1.761079 -1.299313,-1.403402 -1.816509,-2.886837 -1.693566,-4.857444 0.09399,-1.506433 0.712925,-2.844585 1.834486,-3.966146 3.162291,-3.162291 8.364271,-2.242209 10.293702,1.820615 0.614769,1.294495 0.7608,2.860829 0.398524,4.27385 -0.543989,2.121657 -2.28552,3.912102 -4.412033,4.535979 -0.988616,0.290036 -2.716768,0.268645 -3.700128,-0.04581 z M 43.236449,23.156875 c 0.966915,-0.633531 1.249487,-2.142044 0.588359,-3.141046 -0.914095,-1.381317 -3.091401,-1.326289 -3.892081,0.09838 -0.544025,0.967938 -0.275344,2.368474 0.572535,2.984429 0.734827,0.533823 1.96535,0.560087 2.731187,0.05822 z"
       style="fill:#f0cb6b;fill-opacity:1;stroke-width:0.135681"
       id="path463" /><path
       d="m 128.62878,219.61431 c -8.91064,-1.11911 -16.86491,-6.03014 -21.78488,-13.45012 -2.53471,-3.82269 -4.09694,-7.89371 -4.831,-12.58928 -0.3266,-2.08925 -0.32788,-6.49792 -0.002,-8.61794 2.17463,-14.16792 13.28821,-24.75747 27.43267,-26.13917 2.17265,-0.21224 5.76277,-0.0798 7.93933,0.29302 9.76625,1.67257 18.01211,7.86973 22.38469,16.8232 4.70403,9.6321 3.95384,21.27599 -1.93899,30.09597 -3.16324,4.73453 -6.93844,8.058 -12.04768,10.60605 -3.10372,1.54786 -6.10265,2.46295 -9.61945,2.93526 -1.57469,0.21148 -5.99012,0.23669 -7.5322,0.0431 z m -0.2569,-12.87467 c 3.0269,-0.30413 5.53882,-0.98999 8.00423,-2.18554 7.4089,-3.59268 12.37868,-11.34855 12.76893,-19.92724 l 0.0865,-1.90204 0.65936,-0.55599 c 1.19998,-1.01184 3.21786,-3.22847 3.23071,-3.54892 0.002,-0.0519 -0.27456,0.029 -0.61472,0.17946 -0.70338,0.31114 -3.07019,0.93621 -3.5043,0.92548 -0.2737,-0.007 -0.27116,-0.0183 0.0513,-0.2278 0.73109,-0.47552 1.99976,-1.93208 2.48173,-2.84925 0.2772,-0.52753 0.504,-1.02268 0.504,-1.10032 0,-0.0776 -0.5649,0.12633 -1.25537,0.45317 -0.69045,0.32692 -1.82018,0.75629 -2.51052,0.95416 l -1.25517,0.35978 -0.6632,-0.59625 c -1.83066,-1.64592 -4.49232,-2.33126 -7.00512,-1.80368 -2.03008,0.42621 -4.16552,1.92039 -5.20071,3.63894 -0.94253,1.56474 -1.43375,3.92142 -1.13358,5.43851 l 0.13126,0.66369 -1.05851,-0.0816 c -5.37631,-0.41459 -11.22616,-3.35773 -14.86815,-7.48038 -0.77892,-0.88174 -0.79595,-0.89211 -0.96674,-0.58864 -0.0957,0.16997 -0.32766,0.78538 -0.51563,1.36774 -0.26973,0.83568 -0.34141,1.33615 -0.34013,2.37502 0.004,2.3738 0.75771,4.20432 2.40356,5.82894 l 1.00219,0.98928 -0.58403,-0.0864 c -0.50108,-0.0741 -1.94462,-0.50118 -2.72155,-0.80528 -0.30332,-0.11866 -0.31198,0.30534 -0.0334,1.63251 0.56712,2.70115 2.59467,5.00459 5.26051,5.97632 0.83026,0.30263 0.83846,0.31052 0.43894,0.4213 -0.22391,0.0621 -0.998,0.10661 -1.72014,0.099 l -1.313,-0.0146 0.1203,0.31661 c 0.48334,1.27133 1.54882,2.72624 2.53484,3.46136 1.34811,1.00508 2.25443,1.39786 3.84301,1.66554 l 1.00586,0.16941 -0.86065,0.58446 c -2.79395,1.89733 -6.86521,3.04493 -9.98493,2.81454 l -1.08971,-0.0805 0.54287,0.34066 c 0.29858,0.18736 1.0925,0.60656 1.7643,0.93152 3.87705,1.87556 8.2139,2.66346 12.36462,2.24639 z"
       style="fill:#f0cb6b;fill-opacity:1;stroke-width:0.135715"
       id="path486" /></g></svg>
