<?xml version="1.0" encoding="UTF-8" standalone="no"?>
<!-- Created with Inkscape (http://www.inkscape.org/) -->

<svg
   width="50mm"
   height="30mm"
   viewBox="0 0 50 30"
   version="1.1"
   id="svg5"
   xml:space="preserve"
   inkscape:export-filename="Masque.png"
   inkscape:export-xdpi="96"
   inkscape:export-ydpi="96"
   inkscape:version="1.2.2 (732a01da63, 2022-12-09)"
   sodipodi:docname="dessin.svg"
   xmlns:inkscape="http://www.inkscape.org/namespaces/inkscape"
   xmlns:sodipodi="http://sodipodi.sourceforge.net/DTD/sodipodi-0.dtd"
   xmlns="http://www.w3.org/2000/svg"
   xmlns:svg="http://www.w3.org/2000/svg"><sodipodi:namedview
     id="namedview7"
     pagecolor="#ffffff"
     bordercolor="#eeeeee"
     borderopacity="1"
     inkscape:showpageshadow="0"
     inkscape:pageopacity="0"
     inkscape:pagecheckerboard="0"
     inkscape:deskcolor="#505050"
     inkscape:document-units="mm"
     showgrid="false"
     inkscape:zoom="1.4912879"
     inkscape:cx="98.237237"
     inkscape:cy="63.703327"
     inkscape:window-width="1920"
     inkscape:window-height="1017"
     inkscape:window-x="-8"
     inkscape:window-y="-8"
     inkscape:window-maximized="1"
     inkscape:current-layer="layer1" /><defs
     id="defs2" /><g
     inkscape:label="Calque 1"
     inkscape:groupmode="layer"
     id="layer1"><path
       style="fill:#c7a349;fill-opacity:1;stroke-width:0.264583"
       d="m 12.290196,21.141426 c -3.4945583,-0.8831 -5.4970683,-3.22408 -5.4970683,-6.42618 0,-4.29623 2.976939,-6.7399502 8.2632753,-6.7831802 2.574734,-0.0211 2.574734,-0.0211 6.540572,2.02946 2.372135,1.2265002 4.286213,2.0505202 4.763067,2.0505202 0.476326,0 2.396048,-0.82538 4.769225,-2.0505202 3.971997,-2.05052 3.971997,-2.05052 6.420533,-2.04666 5.347351,0.008 8.2258,2.3169002 8.245967,6.6131202 0.02077,4.42568 -2.913949,6.8421 -8.339328,6.86652 -2.277314,0.0102 -2.277314,0.0102 -6.27747,-2.04027 -4.925472,-2.52485 -5.033221,-2.53294 -8.465018,-0.63532 -5.053042,2.79409 -7.084825,3.26628 -10.423755,2.42251 z m 6.409182,-4.69519 c 0.800364,-0.38085 1.74118,-0.92341 2.0907,-1.2057 0.635492,-0.51325 0.635492,-0.51325 -0.620231,-1.24916 -3.356568,-1.96708 -6.14936,-1.95796 -8.753854,0.0286 -0.885672,0.67553 -0.910748,0.73733 -0.488527,1.20388 0.244787,0.27048 1.170873,0.8583 2.057969,1.30626 1.963225,0.99138 3.501738,0.9688 5.713943,-0.0839 z m 21.06676,0.0953 c 0.564271,-0.29852 1.32207,-0.77699 1.683996,-1.06325 0.658048,-0.52048 0.658048,-0.52048 0.02222,-1.19728 -2.070865,-2.20434 -5.562219,-2.3418 -8.817361,-0.34716 -1.429385,0.87588 -1.416487,0.98154 0.238183,1.95124 2.64519,1.55018 4.795411,1.75555 6.872957,0.65645 z"
       id="path304"
       sodipodi:nodetypes="sscssscsccsssssssssssssssss" /></g></svg>
