<?xml version="1.0" encoding="UTF-8" standalone="no"?>
<!-- Created with Inkscape (http://www.inkscape.org/) -->

<svg
   width="210mm"
   height="297mm"
   viewBox="0 0 210 297"
   version="1.1"
   id="svg5"
   xml:space="preserve"
   inkscape:version="1.2.2 (732a01da63, 2022-12-09)"
   sodipodi:docname="chien.svg"
   xmlns:inkscape="http://www.inkscape.org/namespaces/inkscape"
   xmlns:sodipodi="http://sodipodi.sourceforge.net/DTD/sodipodi-0.dtd"
   xmlns="http://www.w3.org/2000/svg"
   xmlns:svg="http://www.w3.org/2000/svg"><sodipodi:namedview
     id="namedview7"
     pagecolor="#ffffff"
     bordercolor="#9c9c9c"
     borderopacity="1"
     inkscape:showpageshadow="0"
     inkscape:pageopacity="0"
     inkscape:pagecheckerboard="0"
     inkscape:deskcolor="#7d7d7d"
     inkscape:document-units="mm"
     showgrid="false"
     inkscape:zoom="0.52724989"
     inkscape:cx="350.87727"
     inkscape:cy="662.87354"
     inkscape:window-width="1419"
     inkscape:window-height="1040"
     inkscape:window-x="81"
     inkscape:window-y="35"
     inkscape:window-maximized="0"
     inkscape:current-layer="layer1" /><defs
     id="defs2" /><g
     inkscape:label="Calque 1"
     inkscape:groupmode="layer"
     id="layer1"><path
       style="fill:#000000;stroke-width:0.264583"
       d="m 98.536176,125.55866 -9.52796,-1.62903 -11.82631,-6.87743 c -6.50448,-3.78259 -11.83119,-7.02231 -11.83716,-7.19938 -0.009,-0.26698 1.88451,-2.47133 9.26891,-10.790562 0.48063,-0.54148 0.59645,-1.24672 1.87982,-11.4465 l 0.57468,-4.56733 -1.36921,-1.96104 -1.3692,-1.96105 -0.0227,-4.18725 c -0.026,-4.78227 -0.33481,-4.50756 -0.60205,0.53552 l -0.18017,3.39986 -2.2868,3.34702 c -1.25774,1.84086 -2.44944,3.53897 -2.64823,3.77358 -0.32617,0.38493 -0.70278,0.24945 -3.85916,-1.38829 -1.92375,-0.99816 -3.9008,-2.03916 -4.39345,-2.31332 l -0.89572,-0.49847 0.0501,-2.61116 c 0.0275,-1.43613 0.10828,-2.84928 0.1794,-3.14032 0.0711,-0.29104 -0.93363,-4.71628 -2.23277,-9.83387 l -2.36207,-9.30471 1.73792,-9.26701 1.73792,-9.267007 6.60279,-2.979481 c 6.22132,-2.807348 6.89196,-3.181324 11.60814,-6.473156 l 5.00534,-3.493673 4.67302,1.563099 c 2.57016,0.859705 4.9744,1.557299 5.34275,1.550209 0.36834,-0.0071 4.34068,-0.69834 8.827414,-1.536112 l 8.15769,-1.52322 8.11419,1.525171 c 4.4628,0.838843 8.41556,1.530093 8.78391,1.536111 0.36835,0.006 2.77258,-0.692454 5.34274,-1.552159 l 4.67302,-1.563099 5.00535,3.493673 c 4.72289,3.296525 5.38068,3.663043 11.65673,6.495084 3.65827,1.650776 6.65309,3.133503 6.65516,3.294947 0.002,0.161446 0.76447,4.303694 1.69421,9.205 l 1.69045,8.911463 -2.22733,8.81562 -2.22733,8.81562 0.0448,3.7013 0.0448,3.7013 -4.20806,2.17977 c -2.31442,1.19888 -4.34291,2.18244 -4.50775,2.18568 -0.16484,0.003 -1.44025,-1.64036 -2.83424,-3.65247 l -2.53453,-3.65838 -0.18438,-3.28693 c -0.27475,-4.89807 -0.58077,-5.17796 -0.6067,-0.5549 l -0.0228,4.05496 -1.37295,1.96641 -1.37295,1.96642 0.99567,7.73696 c 0.88573,6.88262 1.06176,7.81001 1.59417,8.39842 4.45457,4.923192 9.1499,10.393892 9.14251,10.652272 -0.005,0.18037 -5.32753,3.42237 -11.82749,7.20445 l -11.81811,6.87652 -2.65845,0.44853 c -1.46214,0.24669 -5.87648,0.99202 -9.80964,1.6563 -3.93317,0.66427 -7.32645,1.19591 -7.54063,1.18141 -0.21418,-0.0145 -4.677,-0.75941 -9.917384,-1.65537 z m 9.864114,-4.92977 c 0.0394,-3.1232 0.0112,-5.83596 -0.0626,-6.02835 -0.0949,-0.24733 -2.67372,0.94511 -8.802834,4.07041 -9.38224,4.7841 -8.94233,4.54745 -8.77124,4.71854 0.16498,0.16498 16.682254,3.01368 17.168264,2.96098 0.33663,-0.0365 0.40775,-0.90508 0.46846,-5.72158 z m 10.23937,4.21841 c 7.46193,-1.26055 8.32958,-1.44009 8.05555,-1.66691 -0.57946,-0.47964 -17.40706,-8.84979 -17.53489,-8.72196 -0.23209,0.23209 -0.21718,11.58841 0.0155,11.82112 0.10213,0.10212 0.48908,0.12305 0.8599,0.0465 0.37081,-0.0765 4.24257,-0.74198 8.60391,-1.47875 z m -20.005134,-6.50906 c 5.040764,-2.56785 9.313844,-4.78508 9.495744,-4.92719 0.41635,-0.32526 0.46874,-4.95608 0.0561,-4.95608 -0.27704,0 -20.301454,10.49953 -20.720864,10.8647 -0.21077,0.18352 1.56165,3.68738 1.86525,3.68738 0.0763,0 4.26303,-2.10096 9.30379,-4.66881 z m 30.600784,2.92339 c 0.53685,-0.95998 0.87452,-1.83522 0.75037,-1.94497 -0.41561,-0.36741 -20.44777,-10.86169 -20.7335,-10.86169 -0.18461,0 -0.25562,0.84452 -0.2058,2.4474 l 0.0761,2.44739 9.39271,4.82039 c 5.16599,2.6512 9.47176,4.8241 9.56838,4.82864 0.0966,0.005 0.61491,-0.77718 1.15176,-1.73716 z m -41.411814,0.78447 c 0,-0.12739 -0.82368,-1.60558 -1.20238,-2.15781 -0.10224,-0.14909 -1.44345,0.56171 -1.44345,0.76499 0,0.21603 2.10106,1.55315 2.44739,1.55752 0.10914,10e-4 0.19844,-0.0727 0.19844,-0.1647 z m 43.302284,-0.50541 c 0.63125,-0.36993 1.14773,-0.76754 1.14773,-0.88357 0,-0.20528 -1.34123,-0.92058 -1.4416,-0.76883 -0.28036,0.42391 -1.20424,2.11774 -1.20424,2.20785 0,0.24036 0.38155,0.0989 1.49811,-0.55545 z m -46.741864,-3.6075 v -2.16345 l -4.26092,-7.74559 c -2.34351,-4.26007 -4.39734,-7.93147 -4.56407,-8.158662 -0.25526,-0.34782 -0.99269,0.365062 -4.66876,4.513302 -2.4011,2.7095 -4.3985,5.06307 -4.43868,5.23015 -0.0402,0.16709 0.61466,0.68892 1.45521,1.15963 0.84054,0.47071 4.74295,2.7539 8.67201,5.07375 3.92906,2.31986 7.29258,4.22611 7.47448,4.23612 0.2391,0.0132 0.33073,-0.58118 0.33073,-2.14525 z m 58.063764,-2.99593 c 4.73637,-2.76489 8.58174,-5.16382 8.54526,-5.33094 -0.12115,-0.55518 -8.76593,-10.152472 -8.96211,-9.949602 -0.106,0.10961 -2.16617,3.782532 -4.57815,8.162042 l -4.38542,7.96274 v 2.17697 c 0,1.7666 0.0725,2.16084 0.38442,2.09142 0.21143,-0.047 4.25963,-2.34773 8.996,-5.11263 z M 84.537026,95.490388 c 0.0804,0 0.38675,0.12871 0.68069,0.28602 0.29394,0.15731 0.59676,0.22369 0.67294,0.14752 0.0762,-0.0762 -1.6902,-2.75501 -3.92527,-5.95296 -2.23507,-3.19795 -4.13228,-5.73489 -4.21602,-5.63763 -0.14483,0.16822 -1.40402,9.51367 -1.735,12.87684 l -0.15623,1.5875 3.49286,6.350002 c 1.92108,3.4925 3.80961,6.88578 4.19674,7.54062 l 0.70389,1.19063 0.0696,-9.19427 c 0.0383,-5.056852 0.13539,-9.194272 0.21583,-9.194272 z m 53.016024,10.631632 c 2.38451,-4.32803 3.97912,-7.510602 3.97649,-7.936402 -0.002,-0.39097 -0.30133,-2.97305 -0.66428,-5.73794 -0.36295,-2.7649 -0.73552,-5.71539 -0.82793,-6.55665 -0.0924,-0.84126 -0.23996,-1.5727 -0.3279,-1.62542 -0.152,-0.0911 -7.98513,10.94144 -8.19963,11.54877 -0.0615,0.17426 0.0701,0.22005 0.33073,0.11504 0.23814,-0.096 0.61157,-0.24672 0.82985,-0.33505 0.34825,-0.14092 0.39688,0.96767 0.39688,9.048752 0,5.84467 0.0922,9.11711 0.25245,8.95689 0.13885,-0.13885 2.04385,-3.50395 4.23334,-7.47799 z m -23.27122,-0.20733 c 2.69214,-0.82067 5.10316,-1.55123 5.35782,-1.62345 0.25466,-0.0722 0.45981,-0.20673 0.45589,-0.2989 -0.009,-0.21092 -10.91072,-4.797722 -11.40366,-4.797972 -0.29047,-1.6e-4 -10.914054,4.395632 -11.321334,4.684492 -0.0606,0.043 -0.0605,0.12797 2.6e-4,0.18881 0.27207,0.27207 11.264894,3.52317 11.619244,3.43637 0.21829,-0.0535 2.59954,-0.76868 5.29167,-1.58935 z m -12.3582,-4.60347 6.52956,-2.778132 0.004,-1.92999 0.004,-1.93 -3.10232,-1.50958 -3.10233,-1.50959 -1.8868,-4.17332 c -1.037734,-2.29533 -1.949844,-4.23638 -2.026914,-4.31345 -0.11576,-0.11575 -11.28969,3.216 -11.5038,3.43011 -0.0372,0.0372 0.34884,2.67682 0.85784,5.86586 0.78777,4.93558 1.01366,5.88589 1.51833,6.38734 1.44743,1.438242 5.89861,5.345662 6.03179,5.294952 0.081,-0.0308 3.08556,-1.30623 6.676824,-2.8342 z m 23.70819,-0.0735 c 2.15542,-1.943072 3.20984,-3.081122 3.30936,-3.571882 0.12122,-0.59767 1.74483,-10.8743 1.74483,-11.04384 0,-0.0296 -0.86321,-0.31989 -1.91823,-0.64518 -1.05503,-0.32529 -3.62518,-1.12531 -5.71145,-1.77782 -2.08628,-0.65252 -3.84127,-1.13834 -3.9,-1.07962 -0.0587,0.0587 -0.97115,2.00303 -2.02761,4.32067 l -1.92084,4.2139 -3.12057,1.51519 -3.12057,1.51519 0.0779,1.92439 0.0779,1.92439 6.48229,2.813622 c 3.56527,1.54748 6.56813,2.79764 6.67303,2.77812 0.10491,-0.0195 1.61423,-1.31872 3.35404,-2.88713 z M 86.791876,91.248538 c -0.74442,-4.70728 -0.75793,-4.95216 -0.36893,-6.6855 0.22209,-0.98959 0.34301,-1.86004 0.2687,-1.93434 -0.0743,-0.0743 -1.66573,-0.53549 -3.53652,-1.02486 -1.87078,-0.48937 -4.2861,-1.13532 -5.36738,-1.43547 -2.01679,-0.55981 -2.4066,-0.55262 -1.94755,0.0359 0.14461,0.18542 2.80353,3.96032 5.90871,8.38867 3.10518,4.42835 5.68402,7.93685 5.73074,7.79667 0.0467,-0.14017 -0.26277,-2.45368 -0.68777,-5.14112 z m 47.101874,-0.0576 c 2.07279,-2.9468 4.71493,-6.70151 5.87142,-8.3438 1.15648,-1.64229 2.05222,-3.03645 1.99053,-3.09814 -0.12386,-0.12386 -10.79429,2.67782 -11.00635,2.88988 -0.0729,0.0728 0.06,0.89846 0.29512,1.83468 0.41693,1.65983 0.40791,1.82829 -0.36232,6.76466 -0.87046,5.57879 -0.83644,5.31053 -0.67351,5.31053 0.064,0 1.81231,-2.41102 3.88511,-5.35781 z m -27.6849,-4.49792 0.89154,-1.91823 -1.16382,-1.13152 c -0.97435,-0.9473 -1.28358,-1.10523 -1.89939,-0.97008 -1.4092,0.30926 -1.46783,0.35892 -1.31462,1.11349 0.23324,1.14874 1.99157,4.82457 2.30783,4.82457 0.15781,0 0.68811,-0.8632 1.17846,-1.91823 z m 7.70888,-0.74813 c 1.18716,-2.71251 1.16143,-2.96421 -0.33116,-3.23999 -0.68401,-0.12638 -1.01674,0.009 -1.91823,0.78067 -0.59987,0.51347 -1.09067,1.10551 -1.09067,1.31565 0,0.77043 1.5758,3.85803 1.9125,3.74732 0.18505,-0.0608 0.82745,-1.23249 1.42756,-2.60365 z m -43.304054,-3.89109 c 0.91827,-1.35102 1.62402,-2.49834 1.56834,-2.5496 -0.12723,-0.11713 -10.80682,2.12966 -10.98905,2.31189 -0.16506,0.16505 1.41052,1.08152 4.52754,2.63353 l 2.37096,1.18055 0.42632,-0.55998 c 0.23447,-0.30799 1.17763,-1.66537 2.09589,-3.01639 z m 19.72336,2.64849 c 1.45521,-0.4449 3.8448,-1.17464 5.3102,-1.62164 l 2.66436,-0.81274 1.783194,-1.98453 1.7832,-1.98453 -5.744754,-2.7813 c -3.15961,-1.52972 -5.8214,-2.7813 -5.91509,-2.7813 -0.15535,0 -3.22267,12.2688 -3.19873,12.79445 0.006,0.12471 0.15916,0.17134 0.34106,0.10362 0.1819,-0.0677 1.52135,-0.48713 2.97656,-0.93203 z m 39.986874,0.13865 c -0.09,-0.47295 -0.78282,-3.39068 -1.53956,-6.48385 -1.19499,-4.88449 -1.4361,-5.60484 -1.83376,-5.47863 -1.27708,0.40533 -11.0798,5.31434 -11.07083,5.54406 0.006,0.14677 0.74987,1.07368 1.65364,2.0598 l 1.64323,1.79295 5.42396,1.6838 c 2.98318,0.92609 5.52814,1.69684 5.65547,1.71278 0.12733,0.0159 0.15786,-0.35797 0.0678,-0.83091 z m 22.4548,-0.90875 c 1.45521,-0.74922 2.88382,-1.54104 3.17468,-1.7596 0.6243,-0.46911 1.25676,-0.27251 -5.29134,-1.64483 -2.47386,-0.51845 -4.72429,-1.0091 -5.00096,-1.09032 -0.72635,-0.21323 -0.48882,0.25451 1.74924,3.44454 1.39277,1.98519 2.03909,2.70242 2.32568,2.58083 0.21828,-0.0926 1.5875,-0.7814 3.0427,-1.53062 z m -64.853244,-5.5311 0.78205,-3.1987 -1.51389,-1.89739 c -1.28207,-1.60684 -1.80786,-2.03688 -3.43361,-2.80836 -2.2127,-1.05002 -4.005,-2.53565 -5.49915,-4.55821 -1.05006,-1.4214 -2.87279,-4.94175 -2.87279,-5.54837 0,-0.17742 -0.12057,-0.3971 -0.26794,-0.48818 -0.17945,-0.11091 -0.24499,2.9631 -0.19844,9.30781 l 0.0695,9.47341 5.55625,1.50789 c 3.05594,0.82934 5.79019,1.4856 6.07611,1.45835 0.43624,-0.0416 0.64564,-0.56403 1.3019,-3.24825 z m 48.680024,1.85003 c 3.07444,-0.81453 5.68074,-1.56617 5.79177,-1.67031 0.11103,-0.10415 0.16829,-4.40857 0.12725,-9.5654 -0.048,-6.02906 -0.16059,-9.13991 -0.31545,-8.71458 -0.13245,0.3638 -0.77134,1.72197 -1.41974,3.01815 -1.59663,3.19173 -4.12556,5.77966 -6.95081,7.11297 -1.71572,0.8097 -2.22887,1.22186 -3.5371,2.84104 l -1.53023,1.89393 0.72413,3.08415 c 0.79361,3.38001 0.82955,3.48101 1.23882,3.48101 0.15481,0 2.79692,-0.66643 5.87136,-1.48096 z m -70.400344,-0.32103 c 3.31684,-0.69546 6.02889,-1.37819 6.02678,-1.51718 -0.006,-0.40514 -15.75247,-19.70751 -15.84896,-19.42818 -0.0481,0.13916 0.81619,3.8167 1.92057,8.1723 l 2.00798,7.91928 -0.17496,3.0633 c -0.0962,1.68482 -0.12705,3.06143 -0.0685,3.05913 0.0586,-0.002 2.82024,-0.5732 6.13708,-1.26865 z m 91.134834,-1.83603 -0.14276,-3.10885 2.06474,-8.14949 c 1.13561,-4.48222 1.96953,-8.11363 1.85317,-8.0698 -0.36513,0.13755 -16.11294,19.64346 -15.97235,19.78405 0.12644,0.12643 11.19229,2.54721 11.97232,2.61908 0.30215,0.0278 0.34221,-0.51983 0.22488,-3.07499 z M 73.770526,65.857048 c 0.27177,-4.5839 0.44222,-8.42367 0.37877,-8.53281 -0.16286,-0.28014 -17.87471,-0.24896 -17.76712,0.0313 0.0485,0.12634 3.77913,4.7736 8.29028,10.32722 l 8.20208,10.09751 0.20093,-1.79441 c 0.11052,-0.98693 0.4233,-5.54488 0.69506,-10.12879 z m 34.690474,2.11163 v -9.79462 l -0.7276,0.18304 c -0.40019,0.10068 -1.48984,0.37084 -2.42146,0.60036 -1.8505,0.45589 -1.78016,0.37748 -2.79593,3.11695 -1.94303,5.24029 -5.522244,8.51205 -10.329234,9.44197 l -1.84974,0.35784 5.95313,2.9248 5.953124,2.9248 3.10886,0.0197 3.10885,0.0197 z m 12.36928,6.97945 c 3.23783,-1.55559 5.88698,-2.91425 5.88698,-3.01925 0,-0.105 -0.56087,-0.27502 -1.24638,-0.37782 -5.01316,-0.75177 -9.00503,-4.58733 -10.90951,-10.48233 l -0.54919,-1.69992 -2.15709,-0.48483 c -1.1864,-0.26666 -2.31635,-0.54595 -2.51101,-0.62065 -0.29158,-0.11189 -0.35391,1.59344 -0.35391,9.68208 v 9.81789 l 2.97656,0.007 2.97657,0.007 5.88698,-2.82833 z m 32.08073,-7.39531 c 4.43838,-5.46587 8.11001,-10.04958 8.15916,-10.18603 0.0548,-0.15213 -3.37329,-0.22113 -8.86354,-0.17839 l -8.95292,0.0697 0.0644,1.5875 c 0.0864,2.1294 0.82981,14.3284 1.01988,16.7349 0.0833,1.05503 0.23065,1.91644 0.32737,1.91426 0.0967,-0.002 3.80727,-4.47606 8.24566,-9.94193 z m -63.665374,5.67949 c 0.28311,-1.41554 0.23149,-1.49588 -1.02526,-1.59583 -0.65485,-0.0521 -1.19063,0.002 -1.19063,0.12116 0,0.29128 1.62747,2.3015 1.86329,2.3015 0.10298,0 0.26165,-0.37207 0.3526,-0.82683 z m 40.359804,-0.20344 c 0.44879,-0.56664 0.81598,-1.13304 0.81598,-1.25867 0,-0.12563 -0.53578,-0.18581 -1.19062,-0.13372 -0.73869,0.0587 -1.19063,0.22267 -1.19063,0.43185 0,0.72983 0.34204,1.99081 0.54001,1.99081 0.1151,0 0.57647,-0.46362 1.02526,-1.03027 z m -38.565954,-3.46404 c 0.34624,-0.003 8.16109,-8.9565 8.16109,-9.35033 0,-0.056 -1.85313,-0.3138 -4.11807,-0.57289 l -4.11807,-0.47108 -1.86354,-2.21299 c -1.02495,-1.21714 -2.05908,-2.20707 -2.29808,-2.19983 -0.23899,0.007 -2.33953,0.40944 -4.66786,0.89379 l -4.23333,0.88063 -0.0801,1.20902 c -0.1403,2.11821 0.30804,3.02372 3.40945,6.88608 2.3496,2.92609 3.17562,3.76791 4.09721,4.17557 1.24391,0.55024 3.88476,1.03318 4.74425,0.86759 0.29104,-0.0561 0.7262,-0.10357 0.96703,-0.10556 z m 40.572564,-0.57079 c 0.7276,-0.27147 1.44431,-0.58234 1.59268,-0.69081 0.14837,-0.10847 1.62267,-1.89993 3.27621,-3.98102 l 3.00643,-3.7838 0.0311,-2.00181 0.0311,-2.00182 -4.23334,-0.88398 c -2.32833,-0.48618 -4.42887,-0.88899 -4.66786,-0.89511 -0.23899,-0.006 -1.27136,0.98261 -2.29415,2.19719 l -1.85961,2.20833 -4.122,0.47153 c -2.2671,0.25934 -4.122,0.51758 -4.122,0.57388 0,0.0563 1.73369,2.17691 3.85264,4.71247 2.94158,3.51991 4.02088,4.63509 4.56407,4.71577 1.21237,0.18006 3.56008,-0.12419 4.94475,-0.64082 z m -36.754034,-0.52225 c 2.21042,-1.08818 4.33462,-3.32586 5.535044,-5.83071 1.0514,-2.19391 1.1213,-2.60486 0.44309,-2.60486 -0.299,0 -1.901454,1.70178 -4.233344,4.49572 -2.06372,2.47265 -3.75223,4.55624 -3.75223,4.63021 0,0.2495 0.32612,0.13735 2.00744,-0.69036 z m 29.742574,0.68704 c 0,-0.0758 -1.68628,-2.1594 -3.74729,-4.63021 -2.35499,-2.82326 -3.92787,-4.4924 -4.23333,-4.4924 -0.70773,0 -0.60977,0.48529 0.57631,2.85501 0.75888,1.51618 1.49959,2.52643 2.59287,3.53637 1.65804,1.53163 4.81144,3.32167 4.81144,2.73123 z m -22.8569,-10.60142 c 0.29883,-1.19065 -0.0836,-3.72665 -0.79696,-5.28484 -0.59567,-1.30112 -0.74332,-1.45716 -1.099274,-1.16175 -0.95646,0.79379 -0.98344,1.26485 -0.24335,4.24802 0.658564,2.65456 0.765134,2.88363 1.341524,2.88363 0.45296,0 0.67367,-0.18946 0.79806,-0.68506 z m 16.10338,-2.19857 c 0.74008,-2.98317 0.7131,-3.45423 -0.24335,-4.24802 -0.35581,-0.29529 -0.50164,-0.14367 -1.08283,1.12582 -0.75488,1.64888 -1.07187,3.63755 -0.80584,5.05558 0.14429,0.76912 0.29629,0.95025 0.79745,0.95025 0.56755,0 0.67883,-0.24045 1.33457,-2.88363 z m -11.37044,1.60148 1.85208,-0.44522 v -3.3035 -3.30351 l -0.92475,0.0929 c -1.13857,0.11437 -2.28651,0.68589 -2.60897,1.29892 -0.13317,0.25315 -0.37987,1.53184 -0.54823,2.84153 -0.16835,1.30969 -0.36861,2.58961 -0.44501,2.84427 -0.17226,0.57419 0.19519,0.57071 2.67488,-0.0254 z m 7.16263,-0.19203 c -0.0939,-0.37424 -0.29156,-1.64367 -0.43918,-2.82097 -0.14762,-1.17729 -0.38487,-2.35815 -0.52721,-2.62412 -0.34016,-0.63559 -1.48074,-1.20998 -2.62862,-1.32375 l -0.92179,-0.0914 v 3.30351 3.3035 l 1.85208,0.44522 c 2.67318,0.6426 2.87062,0.62837 2.66472,-0.19203 z m -39.574094,-1.94271 c 0,-0.64035 -0.22427,-0.90905 -1.32292,-1.58505 l -1.32292,-0.814 v -1.56367 -1.56366 l 0.99219,-0.23884 c 0.89098,-0.21448 0.98567,-0.318364 0.92831,-1.01847 -0.16157,-1.972056 -1.40892,-13.852367 -1.54721,-14.736401 -0.0854,-0.545703 -0.2519,-0.992187 -0.37006,-0.992187 -0.28188,0 -11.9879,5.277699 -12.22113,5.50994 -0.26292,0.261802 -3.40221,17.279078 -3.23692,17.546518 0.0771,0.12478 4.18132,0.22688 9.12044,0.22688 h 8.98022 z m 87.439354,0.51528 c 0.14779,-0.23913 -0.33692,-2.99288 -2.35027,-13.352518 l -0.81929,-4.215585 -3.70416,-1.672273 c -2.03729,-0.91975 -4.80439,-2.169078 -6.1491,-2.776286 -1.34472,-0.607208 -2.50203,-1.04692 -2.57181,-0.97714 -0.11556,0.11556 -1.59799,12.961305 -1.78122,15.434857 -0.0751,1.014109 -0.0449,1.056575 0.91274,1.283055 l 0.99043,0.23423 v 1.56366 1.56367 l -1.32292,0.814 c -1.09865,0.676 -1.32291,0.9447 -1.32291,1.58505 v 0.77106 h 8.98021 c 5.4953,0 9.04157,-0.0993 9.1383,-0.25578 z m -78.443524,-1.61265 c 3.95331,-0.80317 4.19397,-0.89022 6.68073,-2.41665 1.41883,-0.87091 2.57969,-1.65359 2.57969,-1.73928 0,-0.0857 -0.2664,-0.982949 -0.592,-1.993895 l -0.59199,-1.838085 -2.11999,0.138055 c -4.94025,0.321712 -9.39364,3.412295 -10.82379,7.511545 -0.41723,1.19591 -0.36479,1.40385 0.31861,1.26346 0.24623,-0.0506 2.29317,-0.46689 4.54874,-0.92515 z m 56.431534,0.91121 c 0.29725,-0.29725 -0.81351,-2.75763 -1.88664,-4.17897 -2.03231,-2.691788 -6.36394,-4.756641 -9.64864,-4.599442 l -1.63679,0.07834 -0.57962,1.5875 c -0.3188,0.873125 -0.58671,1.724602 -0.59536,1.892162 -0.009,0.16756 1.0856,0.99216 2.43167,1.83243 2.34446,1.46352 2.63658,1.56945 6.94531,2.51859 5.27577,1.16215 4.76641,1.07305 4.97007,0.8694 z m -17.39278,-0.74483 c 0.32169,-0.49096 0.3546,-0.76925 0.13867,-1.17271 -0.64414,-1.20359 -2.40033,-0.87443 -2.40033,0.4499 0,1.42194 1.49129,1.89855 2.26166,0.72281 z m -29.664944,-0.30123 c 0.22868,-0.22867 0.41577,-0.63689 0.41577,-0.90714 0,-0.27025 -0.18709,-0.67847 -0.41577,-0.90714 -0.22867,-0.22868 -0.63689,-0.41578 -0.90714,-0.41578 -1.12881,0 -1.70955,1.42766 -0.90715,2.23006 0.22868,0.22868 0.63689,0.41578 0.90715,0.41578 0.27025,0 0.67847,-0.1871 0.90714,-0.41578 z m 6.51612,-2.56079 c 0.27315,-0.32742 0.50059,-0.72186 0.50543,-0.87654 0.0129,-0.41307 -1.25868,-1.534261 -2.76932,-2.441726 -1.32227,-0.794311 -4.24903,-1.847456 -4.48326,-1.613228 -0.16567,0.165676 0.74616,3.086864 1.06072,3.398154 0.32141,0.31806 4.373,2.08629 4.83534,2.11027 0.19496,0.0101 0.57795,-0.2495 0.85109,-0.57693 z m 22.781944,-0.34572 c 1.21344,-0.51757 2.34106,-1.08312 2.50582,-1.25677 0.39883,-0.42038 1.25217,-3.085532 1.05202,-3.285684 -0.67326,-0.673262 -7.30471,2.894594 -7.30471,3.930074 0,0.41589 0.89403,1.53592 1.23333,1.5451 0.16901,0.005 1.3001,-0.41515 2.51354,-0.93272 z m 20.81264,0.3238 c 0.0577,-0.29742 -0.0931,-0.4411 -0.46302,-0.4411 -0.30171,0 -0.54857,0.15875 -0.54857,0.35278 0,0.81035 0.85705,0.88518 1.01159,0.0883 z m 2.04537,0.3296 c 0.27266,-0.44117 -0.34058,-0.94708 -0.70557,-0.58208 -0.30531,0.3053 -0.11423,0.86972 0.29445,0.86972 0.12834,0 0.31334,-0.12944 0.41112,-0.28764 z m -70.790304,-0.22591 c 0,-0.35729 -0.48232,-0.60497 -0.79806,-0.40983 -0.1479,0.0914 -0.2004,0.27703 -0.11668,0.41249 0.19862,0.32137 0.91474,0.31928 0.91474,-0.003 z m 2.05052,-0.0818 c -0.0606,-0.18191 -0.26899,-0.33073 -0.46302,-0.33073 -0.19402,0 -0.40238,0.14882 -0.46302,0.33073 -0.0656,0.19674 0.122,0.33072 0.46302,0.33072 0.34102,0 0.5286,-0.13398 0.46302,-0.33072 z m 30.890114,-3.338753 1.5875,-0.166981 0.073,-4.034896 c 0.0402,-2.219193 -0.0194,-4.030393 -0.13229,-4.024887 -0.22213,0.01083 -6.15846,8.260004 -6.15846,8.557842 0,0.473716 1.24058,0.610966 2.11667,0.234178 0.50932,-0.219051 1.64042,-0.473414 2.51354,-0.565256 z m 8.46667,0.247854 c 0,-0.388435 -5.73775,-8.455409 -6.02617,-8.472477 -0.11293,-0.0067 -0.17246,1.801553 -0.13229,4.018303 l 0.073,4.030451 1.30714,0.0948 c 0.71893,0.05214 1.84889,0.307597 2.51103,0.567688 1.22754,0.482182 2.26725,0.372692 2.26725,-0.23876 z m -37.674364,-0.52021 c 1.51215,-0.567278 3.12949,-1.196594 3.5941,-1.398479 0.92623,-0.402477 7.08959,-8.131533 6.75146,-8.466553 -0.30199,-0.299218 -15.15717,-5.310992 -15.30472,-5.163441 -0.0737,0.0737 0.23159,3.568937 0.67841,7.767205 0.44682,4.198266 0.8124,7.781592 0.8124,7.962948 0,0.511368 0.5097,0.408252 3.46835,-0.70168 z m 65.848644,0.700685 c -0.002,-0.181901 0.37044,-3.758255 0.8279,-7.947451 0.45745,-4.189198 0.76621,-7.682253 0.68612,-7.762345 -0.12844,-0.12843 -14.70178,4.710061 -15.29988,5.079705 -0.12919,0.07984 1.10495,1.91701 2.74252,4.082598 2.94559,3.895373 2.99718,3.945996 4.82948,4.738939 4.49273,1.94427 6.22128,2.447364 6.21386,1.808554 z m -38.3842,-5.547857 3.46304,-4.820254 v -1.883479 -1.883481 l -5.3478,-3.284287 c -2.9413,-1.806358 -5.516764,-3.325791 -5.723254,-3.376517 -0.588,-0.144446 -5.16622,0.785909 -5.50021,1.117714 -0.16466,0.163587 -0.86371,2.202432 -1.55345,4.530765 l -1.25408,4.233333 1.13339,3.468394 1.13339,3.468394 2.53674,0.420839 c 2.58032,0.428069 5.44222,1.427932 6.637774,2.319043 0.3638,0.271164 0.7402,0.496798 0.83644,0.501407 0.0962,0.0046 1.73334,-2.160733 3.63802,-4.811871 z m 13.56438,3.546245 c 1.70865,-0.829657 2.96695,-1.225027 4.91799,-1.545286 l 2.62185,-0.430377 1.14103,-3.487383 1.14103,-3.487385 -0.98364,-3.2883 c -0.541,-1.808567 -1.15521,-3.828067 -1.36489,-4.487778 l -0.38125,-1.199475 -2.74273,-0.487276 c -1.5085,-0.268001 -2.85691,-0.442612 -2.99647,-0.388024 -0.13955,0.05459 -2.65479,1.582737 -5.58941,3.395888 l -5.33568,3.296638 v 1.862998 1.862997 l 3.47822,4.837555 c 1.91302,2.660658 3.55013,4.797634 3.63802,4.74884 0.0879,-0.04879 1.19306,-0.590429 2.45593,-1.203632 z M 85.796256,45.61634 c 1.14058,-0.218257 2.65863,-0.39683 3.37343,-0.39683 0.71481,0 1.29724,-0.0893 1.2943,-0.198438 -0.0146,-0.543364 -1.76978,-5.654275 -1.93978,-5.648505 -0.17011,0.0058 -1.8794,2.144112 -4.51518,5.648505 -0.85785,1.140569 -0.93251,1.115701 1.78723,0.595268 z m 48.143304,0.06619 c -0.13795,-0.181901 -1.24388,-1.640417 -2.45762,-3.241146 -1.21374,-1.600729 -2.29274,-3.010191 -2.39778,-3.132138 -0.15905,-0.184658 -2.10232,5.095497 -2.10232,5.712323 0,0.108865 0.68461,0.203499 1.52135,0.210291 0.83675,0.0068 2.29526,0.171193 3.24115,0.365336 2.32812,0.477846 2.4979,0.484445 2.19522,0.08533 z M 89.155406,35.892947 c 0.30831,-1.055026 0.84914,-2.84711 1.20183,-3.982408 0.35269,-1.135299 0.64126,-2.22796 0.64126,-2.428137 0,-0.236391 -1.60473,-0.895941 -4.57846,-1.881755 l -4.57846,-1.517799 -4.41737,3.112688 c -2.42956,1.711978 -4.41678,3.189993 -4.41605,3.284476 0.001,0.164966 14.61162,5.237356 15.26716,5.300423 0.1785,0.01717 0.56693,-0.81587 0.88009,-1.887488 z m 47.838454,-0.727604 c 4.09655,-1.382448 7.44877,-2.594849 7.44938,-2.694225 5.2e-4,-0.09938 -1.98719,-1.577234 -4.41732,-3.284129 l -4.41842,-3.103446 -4.57741,1.517451 c -2.97301,0.985576 -4.57742,1.64502 -4.57742,1.881408 0,0.200177 0.28857,1.292838 0.64126,2.428137 0.35269,1.135298 0.8957,2.934722 1.20669,3.998714 0.36324,1.24278 0.68692,1.905053 0.90519,1.852084 0.18688,-0.04535 3.6915,-1.213546 7.78805,-2.595994 z M 114.87741,30.53716 c 2.13397,-1.308573 3.79568,-2.453565 3.6927,-2.544427 -0.10298,-0.09086 -1.91364,-0.475266 -4.02369,-0.854233 -2.11005,-0.378967 -4.22341,-0.766905 -4.69636,-0.862084 l -0.85989,-0.173052 v 4.016819 4.01682 l 1.00365,-0.610309 c 0.55201,-0.33567 2.74962,-1.68096 4.88359,-2.989534 z M 108.461,29.972895 v -3.869531 l -0.85989,0.172987 c -0.47295,0.09514 -2.58631,0.480364 -4.69636,0.856047 -2.11005,0.375683 -3.918054,0.759206 -4.017774,0.852273 -0.19623,0.183146 8.697874,5.797859 9.243294,5.835147 0.25054,0.01712 0.33073,-0.915628 0.33073,-3.846923 z"
       id="path193" /></g></svg>
